<mxfile host="app.diagrams.net" modified="2023-02-28T11:44:09.705Z" agent="5.0 (Macintosh; Intel Mac OS X 10_15_7) AppleWebKit/537.36 (KHTML, like Gecko) Chrome/110.0.0.0 Safari/537.36" etag="2jfd_MtEgfOlyI096isX" version="20.8.23" type="github">
  <diagram name="Страница 1" id="PqeBgnLbpA4RvhlEJzvI">
    <mxGraphModel dx="1434" dy="803" grid="1" gridSize="10" guides="1" tooltips="1" connect="1" arrows="1" fold="1" page="1" pageScale="1" pageWidth="1169" pageHeight="827" math="0" shadow="0">
      <root>
        <mxCell id="0" />
        <mxCell id="1" parent="0" />
        <mxCell id="SLxa5Ql-JvaU1fJUSNm6-1" value="API" style="rounded=0;whiteSpace=wrap;html=1;" vertex="1" parent="1">
          <mxGeometry x="310" y="220" width="120" height="60" as="geometry" />
        </mxCell>
        <mxCell id="SLxa5Ql-JvaU1fJUSNm6-2" value="SSO" style="rounded=0;whiteSpace=wrap;html=1;" vertex="1" parent="1">
          <mxGeometry x="310" y="120" width="120" height="60" as="geometry" />
        </mxCell>
        <mxCell id="SLxa5Ql-JvaU1fJUSNm6-3" value="API" style="rounded=0;whiteSpace=wrap;html=1;" vertex="1" parent="1">
          <mxGeometry x="310" y="320" width="120" height="60" as="geometry" />
        </mxCell>
      </root>
    </mxGraphModel>
  </diagram>
</mxfile>
